<?xml version="1.0" encoding="UTF-8" standalone="no"?>
<!-- Created with Inkscape (http://www.inkscape.org/) -->

<svg
   xmlns:dc="http://purl.org/dc/elements/1.1/"
   xmlns:cc="http://creativecommons.org/ns#"
   xmlns:rdf="http://www.w3.org/1999/02/22-rdf-syntax-ns#"
   xmlns:svg="http://www.w3.org/2000/svg"
   xmlns="http://www.w3.org/2000/svg"
   xmlns:sodipodi="http://sodipodi.sourceforge.net/DTD/sodipodi-0.dtd"
   xmlns:inkscape="http://www.inkscape.org/namespaces/inkscape"
   id="svg3101"
   version="1.1"
   inkscape:version="0.48.3.1 r9886"
   width="162"
   height="182"
   sodipodi:docname="ans_logo_transparent_nowords.svg">
  <metadata
     id="metadata3107">
    <rdf:RDF>
      <cc:Work
         rdf:about="">
        <dc:format>image/svg+xml</dc:format>
        <dc:type
           rdf:resource="http://purl.org/dc/dcmitype/StillImage" />
        <dc:title></dc:title>
      </cc:Work>
    </rdf:RDF>
  </metadata>
  <defs
     id="defs3105" />
  <sodipodi:namedview
     pagecolor="#ffffff"
     bordercolor="#666666"
     borderopacity="1"
     objecttolerance="10"
     gridtolerance="10"
     guidetolerance="10"
     inkscape:pageopacity="0"
     inkscape:pageshadow="2"
     inkscape:window-width="1366"
     inkscape:window-height="744"
     id="namedview3103"
     showgrid="false"
     inkscape:zoom="3.2802198"
     inkscape:cx="81"
     inkscape:cy="91"
     inkscape:window-x="0"
     inkscape:window-y="24"
     inkscape:window-maximized="1"
     inkscape:current-layer="svg3101" />
  <g
     id="g3130">
    <path
       style="fill:#fefefe"
       d="m 0,91 0,-91 81,0 81,0 0,91 0,91 -81,0 -81,0 0,-91 z"
       id="path3146"
       inkscape:connector-curvature="0" />
    <path
       style="fill:#99d1ab"
       d="M 83.678119,177.19682 C 82.755154,176.17695 82,174.80422 82,174.1463 82,173.48837 80.491851,169.92381 78.648557,166.22504 76.805263,162.52627 74.52408,156.575 73.579262,153 c -1.513971,-5.72856 -1.559172,-7.2121 -0.380851,-12.5 1.204478,-5.40529 1.608768,-6.03145 4.07883,-6.31734 2.595689,-0.30043 2.661371,-0.43222 1.232294,-2.47251 C 77.679291,130.52481 77,128.80497 77,127.88828 c 0,-2.82751 3.421498,-6.13828 6.343564,-6.13828 5.633167,0 8.682502,6.35374 5.001448,10.42126 C 86.791541,133.88783 86.819006,134 88.792753,134 c 1.831253,0 2.141751,-0.67709 2.404987,-5.24447 0.283379,-4.91687 0.483811,-5.27606 3.208595,-5.75 2.619314,-0.45561 2.74276,-0.64107 1.25,-1.87797 C 92.047643,118.13738 94.991987,111 99.834198,111 c 6.037542,0 9.671092,6.67922 5.509462,10.12756 -1.4932,1.23727 -1.37009,1.42485 1.25,1.90453 2.81532,0.51542 2.89757,0.6955 2.62641,5.75 -0.2717,5.06445 -0.20097,5.21791 2.40498,5.21791 2.53777,0 2.59422,-0.10023 1.02994,-1.82874 -3.17555,-3.50894 -1.57529,-9.47248 2.83915,-10.58043 5.30766,-1.33214 9.53823,3.50259 7.45846,8.52359 -0.66818,1.61314 -1.88003,3.30522 -2.69301,3.76018 -1.15699,0.64749 -0.69396,1.31186 2.13114,3.05786 1.9851,1.22686 3.60927,2.46048 3.60927,2.74137 0,0.28089 -0.9,1.65488 -2,3.0533 -1.38182,1.7567 -2,4.05678 -2,7.44145 0,4.5387 -0.25732,5.0507 -3.5,6.96392 -2.09147,1.234 -3.5,2.84736 -3.5,4.00898 0,2.75908 -7.27276,12.25548 -11.19717,14.62069 -2.10207,1.2669 -6.055636,2.2266 -10.874711,2.63977 -6.607618,0.56651 -7.785586,0.41304 -9.25,-1.20512 z M 133.5222,155.67238 c -1.37259,-4.52713 -1.34747,-9.71535 0.0607,-12.5381 C 134.44287,141.41043 135.56352,140 136.07324,140 136.58296,140 137,138.67544 137,137.05654 c 0,-2.23486 0.74513,-3.37837 3.09517,-4.75 1.70235,-0.9936 3.96149,-3.49404 5.02032,-5.55654 1.05884,-2.0625 2.30488,-3.75 2.76898,-3.75 0.91348,0 3.79809,7.14801 4.30405,10.66535 0.18186,1.26426 -0.72888,3.27446 -2.18852,4.83057 -1.375,1.46586 -2.56884,3.86645 -2.65299,5.33464 -0.32226,5.62311 -2.70233,10.13569 -5.84282,11.07788 -5.87778,1.76342 -7.62816,1.93094 -7.98199,0.76394 z M 64.068527,103.80333 c -2.9084,-4.678631 -3.197778,-5.831498 -2.902921,-11.565101 0.317444,-6.172802 0.235451,-6.4202 -2.669051,-8.053334 C 56.84845,83.258203 55.169391,82.05 54.765313,81.5 53.718698,80.075429 53.820156,38 54.870205,38 c 0.478613,0 3.066113,4.802801 5.75,10.672892 2.683887,5.870091 7.421203,16.107591 10.527369,22.75 L 76.795148,83.5 91.647574,83.783858 c 16.773596,0.320576 21.465526,-0.752695 25.797686,-5.901174 3.18549,-3.785733 4.82986,-9.86141 3.96432,-14.6475 -0.96341,-5.327284 -7.33767,-11.047136 -16.21755,-14.552586 -9.358584,-3.694426 -11.525363,-5.51522 -11.525363,-9.68503 0,-7.799613 10.933813,-10.731537 16.072763,-4.309944 1.23785,1.546807 2.25287,3.423021 2.2556,4.169365 0.003,0.829841 0.62376,1.119536 1.59787,0.745735 0.8761,-0.336189 2.6761,-0.883118 4,-1.215397 2.99933,-0.752783 3.02854,-2.16941 0.1333,-6.465647 C 113.94558,26.311619 109.57634,24 102.75325,24 95.658541,24 90.808843,26.057421 87.730306,30.373287 85.956709,32.85973 85.5,34.870853 85.5,40.194458 c 0,6.256164 0.222154,6.923663 3.393152,10.195302 2.092404,2.158814 6.362635,4.697845 11.139398,6.623361 4.26044,1.717384 8.69602,4.133501 9.85685,5.369149 3.02411,3.219021 2.81865,8.603921 -0.44528,11.670223 -2.29112,2.152398 -3.63774,2.441168 -12.999996,2.787733 L 86,77.226839 86,64.324861 C 86,53.397178 85.693955,50.822594 84,47.5 81.483394,42.563823 81.49032,37.720034 84.021962,32.140796 85.109883,29.743234 86,27.380734 86,26.890796 86,26.400858 84.208949,26 82.019888,26 L 78.039775,26 77.769888,47.25 77.5,68.5 75.719391,64.5 C 74.740056,62.3 70.444273,52.85 66.173207,43.5 L 58.407631,26.5 52.703816,26.200096 47,25.900192 47,52.891079 c 0,14.844988 -0.399236,27.237628 -0.887191,27.539201 -1.538717,0.95098 -16.16149,2.854372 -16.825721,2.190142 -0.348909,-0.34891 0.51579,-3.443741 1.921553,-6.877402 L 33.764575,69.5 38.882288,69.19774 C 43.991213,68.896 44,68.889561 44,65.44774 44,62.174132 43.823228,62 40.5,62 38.575,62 37,61.862446 37,61.694326 c 0,-0.168121 1.575,-4.211609 3.5,-8.985529 2.965155,-7.353459 3.497346,-9.866365 3.48263,-16.444325 L 43.965261,28.5 33.092245,53.110925 C 27.112086,66.646934 21.684897,78.720258 21.031825,79.940534 19.879458,82.093752 19.6623,81.966345 13.672211,75.622664 9.2745303,70.96539 6.7071676,67.133085 4.7423529,62.293055 1.4599196,54.207267 1.376034,52.874657 4,50.5 c 1.6062718,-1.453656 2,-3.079967 2,-8.261083 0,-5.7695 0.3433868,-6.884809 3.25,-10.555889 5.045612,-6.372657 7.933506,-9.164288 12,-11.600003 2.521819,-1.510498 3.75,-2.968864 3.75,-4.452822 0,-1.403209 1.699937,-3.62765 4.668772,-6.1092882 3.990196,-3.33539 5.407297,-3.9221686 9.75,-4.0371784 C 42.213447,5.4097238 47.2,4.8499684 50.5,4.2398357 53.8,3.629703 58.75,2.9886402 61.5,2.8152517 L 66.5,2.5 l 0.301075,4 c 0.29796,3.958615 0.391078,4.044225 9,8.274428 C 85.590298,19.584601 87,19.860801 87,16.968615 c 0,-3.060012 2.663626,-3.497734 9.928531,-1.631588 3.847469,0.988305 9.383389,1.5792 13.355049,1.425497 7.47999,-0.289475 8.67376,0.480195 8.70111,5.609921 0.013,2.44056 -0.21022,2.68527 -1.48469,1.627555 -2.29507,-1.904739 -1.80288,-0.213445 1.5,5.154424 1.65,2.681592 3,5.249117 3,5.705611 0,0.456495 0.85544,1.60415 1.90097,2.550346 1.04554,0.946196 2.18065,3.211139 2.52247,5.033207 0.34182,1.822068 1.73638,4.515837 3.09903,5.986153 1.36264,1.470317 2.47753,3.294476 2.47753,4.053687 0,0.759211 1.4625,2.373475 3.25,3.587253 1.7875,1.213778 5.12835,4.281921 7.42411,6.818094 3.75274,4.14572 4.3824,4.484981 6.23732,3.360674 1.13476,-0.687804 3.89922,-1.883113 6.14325,-2.656243 3.61615,-1.245864 4.14813,-1.228269 4.67884,0.154754 0.32934,0.858245 0.0503,3.628554 -0.62011,6.156243 -2.49083,9.391454 -5.67489,14.494216 -15.03552,24.095797 -5.09387,5.225 -9.71428,10.7375 -10.26756,12.25 -0.917,2.50675 -1.45502,2.75 -6.08247,2.75 l -5.07649,0 2.17432,-2.31445 C 129.27236,101.95228 126.59543,95 120.32625,95 c -6.23543,0 -8.85334,7.56774 -4.13769,11.96104 l 2.18856,2.03896 -3.68856,0 C 111.13973,109 111,108.86741 111,105.5 c 0,-3.40996 -0.10173,-3.5 -3.95455,-3.5 l -3.95454,0 2.45454,-2.454545 C 110.12722,94.963692 107.38561,88 101,88 94.614394,88 91.872783,94.963692 96.454545,99.545455 L 98.909091,102 94.954545,102 C 91.101732,102 91,102.09004 91,105.5 c 0,3.36741 -0.139729,3.5 -3.688561,3.5 l -3.688562,0 2.188562,-2.03896 C 90.600507,102.49935 87.897316,95 81.5,95 c -6.10804,0 -8.707249,7.02159 -4.325686,11.68555 L 79.348628,109 l -6.024838,0 -6.024839,0 -3.230424,-5.19667 z"
       id="path3144"
       inkscape:connector-curvature="0" />
    <path
       style="fill:#68bb8d"
       d="m 84.085399,176.81247 c -0.778031,-1.27186 -1.336018,-2.42724 -1.239972,-2.56752 0.09605,-0.14028 -1.461361,-3.50369 -3.460905,-7.47426 -1.999545,-3.97056 -4.452846,-10.15579 -5.45178,-13.74495 -1.696841,-6.09672 -1.711885,-6.94293 -0.228838,-12.87161 1.548067,-6.18861 1.658141,-6.33172 4.441751,-5.775 3.213697,0.64274 3.536756,0.16042 1.354345,-2.02199 -2.059433,-2.05943 -1.884145,-6.69952 0.328741,-8.70215 C 82.28767,121.42969 85.5682,121.5682 88,124 c 2.371149,2.37115 2.548539,4.89251 0.531803,7.55887 -2.06791,2.73402 -1.888416,3.23196 0.968197,2.68588 C 91.760134,133.8127 92,133.2983 92,128.88342 92,124.07075 92.045711,124 95.154988,124 c 2.923495,0 3.042234,-0.1284 1.61828,-1.75 -2.731497,-3.11063 -2.952322,-5.75265 -0.718205,-8.59287 2.690493,-3.42041 6.192467,-3.4292 8.872357,-0.0223 2.59091,3.2938 2.60606,4.83166 0.0726,7.36514 -2.65453,2.65453 -2.53937,3 1,3 2.93333,0 3,0.11111 3,5 0,4.69624 0.15533,5 2.5567,5 2.44231,0 2.48706,-0.0994 1,-2.22251 C 109.35887,127.21194 111.86455,122 117.25731,122 c 5.42417,0 7.79852,6.82952 3.67252,10.5635 l -2.07017,1.87348 3.23767,2.64246 3.23767,2.64245 -2.13467,3.45396 c -1.57287,2.54496 -1.98301,4.3885 -1.55841,7.00496 0.51656,3.18323 0.21483,3.82667 -2.91335,6.21265 -1.93005,1.47212 -3.73341,3.87833 -4.03516,5.38409 -0.30007,1.49735 -3.04403,5.48238 -6.09769,8.85564 -4.84106,5.34772 -6.1312,6.21218 -10.073913,6.75 -13.687808,1.86713 -12.926705,1.89722 -14.436408,-0.57072 z M 133.55199,154.75 c -1.1175,-3.62597 -1.47163,-9.75 -0.56381,-9.75 0.5565,0 1.01182,-0.6199 1.01182,-1.37756 0,-0.75765 0.64829,-1.91558 1.44064,-2.57317 0.79235,-0.6576 1.57985,-2.39412 1.75,-3.85894 0.19769,-1.70197 1.45611,-3.3901 3.48634,-4.67682 1.74734,-1.10743 3.95318,-3.70101 4.90187,-5.76351 0.9487,-2.0625 1.99644,-3.75 2.32833,-3.75 0.70383,0 2.99617,6.23886 3.79062,10.31661 0.42149,2.16341 -0.0849,3.47804 -2.18376,5.66874 -1.50289,1.56867 -2.47057,3.27597 -2.15041,3.79399 0.32015,0.51803 -0.39668,3.25857 -1.59296,6.09009 -1.83362,4.34004 -2.73201,5.30294 -5.72287,6.13382 -4.6885,1.30249 -6.03249,1.25009 -6.49581,-0.25325 z M 64.12103,103.36225 c -3.108656,-5.134542 -3.335622,-6.059071 -2.837109,-11.556755 0.539883,-5.953933 0.529408,-5.983084 -2.87103,-7.989392 L 55,81.802448 55.035435,60.151224 C 55.066692,41.052986 55.236033,38.794785 56.471572,41 c 0.770385,1.375 5.585302,11.6125 10.699814,22.75 L 76.4705,84 92.267369,84 c 17.819231,0 20.470361,-0.659391 25.448931,-6.329664 3.47469,-3.95746 4.83976,-8.856296 3.9668,-14.235718 -0.98585,-6.075125 -4.1279,-9.116814 -14.50678,-14.043425 C 95.732046,43.958859 94,42.587112 94,38.955796 c 0,-7.548288 9.61197,-10.312083 14.9778,-4.306669 1.52522,1.707019 2.9633,3.67418 3.19573,4.371469 C 112.83387,41.001599 120,38.342736 120,36.116728 120,33.810039 115.70986,28.105636 112.28575,25.859456 99.446986,17.437344 80.642,29.84863 84.868352,43.954934 c 1.931108,6.445464 5.220927,9.382729 15.091097,13.473854 4.979971,2.064169 9.726361,4.712252 10.547521,5.884629 2.23994,3.197957 1.84243,7.428095 -0.96152,10.232038 C 107.25134,75.83957 106.40519,76 96.59957,76 L 86.108231,76 85.730819,62.75 c -0.272447,-9.564919 -0.876704,-14.571067 -2.172654,-18 -1.705464,-4.51246 -1.709575,-4.98754 -0.0822,-9.5 C 84.418134,32.6375 85.258976,29.375 85.344501,28 85.481373,25.799478 85.050783,25.462821 81.75,25.189635 L 78,24.879269 78,46.139635 C 78,57.832836 77.628376,66.9725 77.174169,66.45 76.719962,65.9275 75.158563,62.8 73.704394,59.5 72.250225,56.2 68.178035,47.2 64.655082,39.5 L 58.249713,25.5 52.624856,25.200096 47,24.900192 l 0,27.51136 0,27.51136 -4.045124,1.089239 c -2.224818,0.599081 -6.23188,0.953926 -8.904581,0.788544 L 29.190837,81.5 31.401212,76 33.611587,70.5 39.055793,70 44.5,69.5 44.810365,65.75 45.120731,62 l -3.993076,0 -3.993076,0 3.932711,-9.665377 c 3.50873,-8.623367 3.923324,-10.536968 3.845646,-17.75 L 44.825873,26.5 l -3.285258,7 c -1.806892,3.85 -7.238713,16 -12.070714,27 C 24.6379,71.5 20.519312,80.698633 20.317482,80.941407 19.222274,82.258795 8.5361681,69.826013 6.0005656,64.284348 1.7238382,54.937382 1.6286395,54.330269 3.9323945,51.094943 5.470348,48.935087 6,46.653761 6,42.189321 6,36.438309 6.219489,35.916505 11.25,29.708195 14.1375,26.144642 18.4125,22.063559 20.75,20.639122 23.943817,18.692859 25,17.421835 25,15.524619 25,14.136078 25.362062,13 25.804583,13 26.247103,13 28.382878,11.375343 30.550749,9.3896503 33.941157,6.2841578 35.261967,5.7407256 39.996166,5.5034414 45.842877,5.2103968 62.484841,3.4467967 65,2.8537083 c 1.134699,-0.2675683 1.515763,0.6199375 1.564725,3.6442761 0.06739,4.1626216 -0.144963,3.9458286 7.559401,7.7174066 1.443269,0.706535 4.541971,2.285842 6.886005,3.50957 C 85.338353,19.984557 87,19.939746 87,17.563428 c 0,-3.126973 2.705419,-3.790982 8.537749,-2.095478 5.311101,1.54398 8.657261,1.841757 17.853791,1.58882 2.14034,-0.05887 4.07208,0.07352 4.29276,0.294197 0.22068,0.220675 0.67467,2.144484 1.00888,4.27513 L 119.30084,25.5 117.15042,23.595012 c -2.95892,-2.621209 -2.71349,-1.662899 1.34958,5.269676 1.925,3.284512 3.5,6.442789 3.5,7.018393 0,0.575603 0.9,1.528217 2,2.116919 1.29126,0.69106 2,2.093823 2,3.958458 0,1.588451 1.06343,4.160118 2.36317,5.714817 1.29974,1.554699 2.67032,3.808527 3.04573,5.008506 0.37542,1.19998 2.64783,3.333498 5.04981,4.741152 2.40198,1.407654 5.3431,4.138353 6.53582,6.068219 2.34482,3.794 4.68547,4.38886 8.29065,2.107009 1.21815,-0.771011 3.67732,-1.706766 5.46482,-2.079455 4.07769,-0.850188 4.13561,-0.0095 0.70369,10.213972 -2.7477,8.185258 -8.51468,16.109737 -17.50072,24.047928 -2.66511,2.354334 -5.4102,5.841834 -6.1002,7.750004 -1.20488,3.33204 -1.45335,3.46939 -6.27616,3.46939 -4.71354,0 -4.89228,-0.0906 -2.91338,-1.47667 6.68273,-4.68077 0.86212,-14.996837 -6.92916,-12.280783 -4.96157,1.729615 -6.14844,6.689653 -2.66149,11.122593 l 2.07258,2.63486 -3.07258,0 C 111.22773,109 111,108.74059 111,105.5 c 0,-3.36496 -0.14176,-3.5 -3.67431,-3.5 l -3.67432,0 2.17432,-2.314451 C 110.30493,94.917615 107.39361,87.666667 101,87.666667 c -6.393608,0 -9.304927,7.250948 -4.825686,12.018882 L 98.348628,102 94.674314,102 C 91.141765,102 91,102.13504 91,105.5 c 0,3.24059 -0.227727,3.5 -3.07258,3.5 l -3.07258,0 2.07258,-2.63486 c 3.369156,-4.28319 2.593272,-8.527399 -1.9924,-10.898742 -7.621443,-3.941202 -14.608883,7.146492 -7.59825,12.056932 1.95858,1.37184 1.68426,1.47466 -3.864264,1.44831 L 67.5,108.94328 64.12103,103.36225 z"
       id="path3142"
       inkscape:connector-curvature="0" />
    <path
       style="fill:#8cc531"
       d="m 84.085399,176.81247 c -0.778031,-1.27186 -1.336018,-2.42724 -1.239972,-2.56752 0.09605,-0.14028 -1.461361,-3.50369 -3.460905,-7.47426 -1.999545,-3.97056 -4.452846,-10.15579 -5.45178,-13.74495 -1.696841,-6.09672 -1.711885,-6.94293 -0.228838,-12.87161 1.548067,-6.18861 1.658141,-6.33172 4.441751,-5.775 3.213697,0.64274 3.536756,0.16042 1.354345,-2.02199 -2.059433,-2.05943 -1.884145,-6.69952 0.328741,-8.70215 C 82.28767,121.42969 85.5682,121.5682 88,124 c 2.371149,2.37115 2.548539,4.89251 0.531803,7.55887 -2.06791,2.73402 -1.888416,3.23196 0.968197,2.68588 C 91.760134,133.8127 92,133.2983 92,128.88342 92,124.07075 92.045711,124 95.154988,124 c 2.923495,0 3.042234,-0.1284 1.61828,-1.75 -2.731497,-3.11063 -2.952322,-5.75265 -0.718205,-8.59287 2.690493,-3.42041 6.192467,-3.4292 8.872357,-0.0223 2.59091,3.2938 2.60606,4.83166 0.0726,7.36514 -2.65453,2.65453 -2.53937,3 1,3 2.93333,0 3,0.11111 3,5 0,4.69624 0.15533,5 2.5567,5 2.44231,0 2.48706,-0.0994 1,-2.22251 C 109.35887,127.21194 111.86455,122 117.25731,122 c 5.42417,0 7.79852,6.82952 3.67252,10.5635 l -2.07017,1.87348 3.23767,2.64246 3.23767,2.64245 -2.13467,3.45396 c -1.57287,2.54496 -1.98301,4.3885 -1.55841,7.00496 0.51656,3.18323 0.21483,3.82667 -2.91335,6.21265 -1.93005,1.47212 -3.73341,3.87833 -4.03516,5.38409 -0.30007,1.49735 -3.04403,5.48238 -6.09769,8.85564 -4.84106,5.34772 -6.1312,6.21218 -10.073913,6.75 -13.687808,1.86713 -12.926705,1.89722 -14.436408,-0.57072 z m 49.538151,-22.35111 c -0.34652,-0.90301 -0.40036,-2.01347 -0.11964,-2.46769 0.28072,-0.45421 0.0816,-1.95374 -0.44255,-3.33229 -0.71101,-1.87009 -0.58588,-2.8111 0.49284,-3.70636 C 134.34939,144.29507 135,143.19031 135,142.5 c 0,-0.69031 0.675,-1.81531 1.5,-2.5 0.825,-0.68469 1.5,-2.27809 1.5,-3.54089 0,-1.53009 1.12829,-2.99331 3.38234,-4.38639 1.86029,-1.14973 3.93989,-3.43643 4.62132,-5.08156 0.68144,-1.64514 1.52428,-2.99116 1.87297,-2.99116 0.70867,0 2.99366,6.09586 3.79161,10.11518 0.41619,2.0964 -0.10274,3.05803 -2.61597,4.8476 -2.31982,1.65186 -2.86382,2.55936 -2.0918,3.48958 1.30661,1.57438 -2.72864,11.30158 -4.96047,11.95749 -5.50569,1.61807 -7.76997,1.63199 -8.37645,0.0515 z M 64.413412,103.29719 C 60.941139,97.869151 60.795646,97.298837 61.393787,91.460638 L 62.022207,85.3269 58.511104,83.436046 55,81.545192 55.062035,60.022596 55.12407,38.5 l 1.938925,4 c 1.066408,2.2 5.914401,12.55 10.773316,23 l 8.834392,19 12.903406,0.28166 C 103.79259,85.092025 110.73257,84.038677 115.13827,80.901543 119.12713,78.061224 122,72.027472 122,66.490178 122,57.82881 117.77023,53.254179 104.96508,48.066352 100.85929,46.402947 96.7125,44.082681 95.75,42.910206 91.756543,38.04555 95.096491,32 101.77749,32 c 4.55516,0 7.52603,1.904325 9.17267,5.879683 l 1.2258,2.959337 4.41202,-1.63521 c 2.42661,-0.899365 4.40462,-1.875645 4.39557,-2.16951 -0.009,-0.293865 -1.0284,-2.320993 -2.26523,-4.504729 -4.09944,-7.237944 -11.29348,-10.420205 -20.451868,-9.046819 -6.021369,0.90296 -12.727325,7.126535 -13.791582,12.799508 -1.783678,9.507823 2.658808,15.869877 14.716536,21.075447 11.448654,4.942622 12.263144,5.639084 12.263144,10.486188 0,6.67751 -1.66988,7.598974 -14.487752,7.994581 L 86,76.176952 86,63.202783 C 86,53.638911 85.60734,49.475723 84.506161,47.364307 82.624334,43.756067 82.620938,35.287075 84.5,32 c 0.786021,-1.375 1.445075,-3.538374 1.464565,-4.807498 0.03226,-2.100746 -0.345365,-2.279946 -4.214565,-2 L 77.5,25.5 77,45.5 C 76.676221,58.451145 76.196082,64.657112 75.637683,63.108439 74.82776,60.862189 73.204915,57.310853 62.450324,34.25 L 58.136521,25 52.56826,25 47,25 47,52.381285 47,79.76257 42.55718,80.881285 C 36.931501,82.297847 30,82.327708 30,80.935381 c 0,-0.58554 0.955415,-3.28554 2.123144,-6 L 34.246288,70 39.623144,70 45,70 45,66 C 45,62.095238 44.91667,62 41.5,62 39.575,62 38,61.585631 38,61.079179 38,60.572728 39.575,56.423889 41.5,51.859538 44.572459,44.574456 45,42.524802 45,35.080359 45,25.604626 44.426724,25.527611 40.679971,34.5 39.301934,37.8 36.615476,43.875 34.710064,48 32.804653,52.125 29.338074,60 27.006555,65.5 24.675036,71 22.110423,76.78155 21.307414,78.34789 l -1.460016,2.84789 -5.418645,-5.462031 C 9.6480782,70.914796 6.5478587,65.680367 2.9633493,56.375494 2.3626769,54.816235 2.8114373,53.270132 4.6500377,50.564388 6.6792371,47.578153 7.0327981,46.153605 6.5111203,43.065821 6.0954999,40.605784 6.3869448,38.056213 7.3328925,35.876927 9.1270126,31.743611 17.331193,22.951125 21.75,20.425998 23.70906,19.306493 25,17.776781 25,16.574878 c 0,-1.096648 2.065056,-3.889833 4.589013,-6.207077 3.895762,-3.576697 5.069983,-4.1351196 7.772824,-3.6965089 1.751096,0.2841638 5.64854,-0.1610882 8.660987,-0.9894489 3.012447,-0.8283608 9.003819,-1.7682199 13.314161,-2.0885759 L 67.173971,3.0108018 66.529153,6.8274476 C 65.895697,10.576839 65.960244,10.675456 70.192167,12.423912 72.561475,13.402812 75.175,14.603178 76,15.091393 80.37692,17.681544 85.030145,20 85.851754,20 c 0.512286,0 1.213787,-1.125 1.55889,-2.5 0.489825,-1.951618 1.26706,-2.5 3.543308,-2.5 1.603717,0 4.182644,0.522412 5.730948,1.160915 1.548305,0.638503 6.82727,1.201003 11.73103,1.25 8.8542,0.08847 8.92242,0.108555 9.85416,2.901585 1.1108,3.329751 0.37628,4.468828 -1.74592,2.707556 -2.42785,-2.01493 -1.78498,0.164485 1.80905,6.132964 1.83327,3.04445 3.61915,6.280477 3.96862,7.191172 C 122.6513,37.254886 123.39604,38 123.9568,38 c 0.56076,0 1.30409,1.779311 1.65184,3.954024 0.34775,2.174713 1.51522,4.753077 2.59437,5.729698 1.07915,0.97662 2.57699,3.24731 3.32852,5.045976 0.75153,1.798666 1.8832,3.270302 2.51483,3.270302 0.63163,0 3.76231,2.738466 6.95705,6.08548 5.45276,5.71265 5.95224,6.005483 8.15261,4.779724 4.10053,-2.284273 9.28961,-3.819569 10.11612,-2.993059 1.25177,1.251766 -4.03812,16.679167 -6.97361,20.337794 C 150.84665,86.019473 146.15903,91.1 141.88159,95.5 c -4.27744,4.4 -8.23952,9.2375 -8.80462,10.75 -0.89124,2.38538 -1.57073,2.75 -5.1248,2.75 l -4.09733,0 2.07258,-2.63486 C 127.06734,104.91597 128,102.64551 128,101.31969 128,98.139848 123.75817,94 120.5,94 c -3.41014,0 -7.5,4.166253 -7.5,7.64009 0,1.50206 1.0125,3.81181 2.25,5.1328 l 2.25,2.40179 -3,-0.33734 c -2.5917,-0.29143 -3,-0.74564 -3,-3.33734 0,-2.66544 -0.39033,-3.05648 -3.5,-3.50646 -2.37942,-0.34431 -3.08004,-0.77562 -2.18832,-1.34714 4.28101,-2.743759 3.03185,-10.640143 -2.01382,-12.730128 -3.79154,-1.570507 -7.582021,0.167273 -9.622242,4.4114 -1.166134,2.425826 -1.080548,3.168285 0.716275,6.213673 L 96.932549,102 93.466275,102 C 90.171485,102 90,102.17315 90,105.5 c 0,3.1275 -0.284622,3.5 -2.674314,3.5 l -2.674314,0 2.174314,-2.31445 c 2.884273,-3.07017 2.77173,-7.179043 -0.280231,-10.231005 -3.128274,-3.128273 -6.962636,-3.128273 -10.09091,0 -2.999691,2.999692 -3.131334,6.415335 -0.381965,9.910595 L 78.14516,109 l -5.041851,0 c -5.039941,0 -5.043234,-0.002 -8.689897,-5.70281 z"
       id="path3140"
       inkscape:connector-curvature="0" />
    <path
       style="fill:#7ec019"
       d="M 84.572895,177.08055 C 83.707803,176.12463 83,174.80262 83,174.14274 c 0,-0.65987 -1.353,-3.88005 -3.006668,-7.15595 -5.972091,-11.83064 -7.577088,-19.01922 -5.909824,-26.46934 L 75.31826,135 l 3.986893,0 3.986892,0 -2.646022,-2.45225 c -3.867965,-3.58471 -3.359441,-7.94581 1.125341,-9.65092 C 87.389346,120.76087 92.048447,129.07927 87,132.23207 84.052041,134.0731 84.554346,135 88.5,135 l 3.5,0 0,-5.5 0,-5.5 3.674314,0 3.674314,0 -2.174314,-2.31445 C 94.788668,119.14615 94.321607,115.07839 96.2,113.2 c 1.550085,-1.55009 7.04991,-1.55009 8.6,0 2.17054,2.17054 1.40083,6.48335 -1.55,8.68491 l -2.75,2.05173 4.25,0.0317 4.25,0.0317 0,5.5 0,5.5 3.5,0 c 1.925,0 3.5,-0.45 3.5,-1 0,-0.55 -0.43963,-1 -0.97695,-1 -0.53732,0 -1.67427,-1.06426 -2.52657,-2.36502 -3.18723,-4.86433 2.20555,-10.47037 7.39857,-7.69115 3.86986,2.07109 3.52823,10.05617 -0.43023,10.05617 -2.41597,0 -1.66658,1.72449 1.78518,4.10807 1.7875,1.23434 3.41159,2.36407 3.60909,2.51052 0.1975,0.14644 -0.59,1.59914 -1.75,3.22821 -1.39366,1.95722 -2.10909,4.48732 -2.10909,7.45879 0,4.09425 -0.31894,4.68504 -3.56234,6.59869 -2.25622,1.3312 -3.46208,2.74235 -3.28889,3.84878 0.34257,2.18853 -5.96668,10.99914 -10.02318,13.99694 -2.04585,1.51191 -4.454225,2.25 -7.341699,2.25 -2.363402,0 -5.723821,0.40918 -7.467598,0.90929 -2.530426,0.72572 -3.488048,0.5584 -4.743398,-0.82874 z m 49.050655,-22.61919 c -0.34652,-0.90301 -0.40036,-2.01347 -0.11964,-2.46769 0.28072,-0.45421 0.0816,-1.95374 -0.44255,-3.33229 -0.71101,-1.87009 -0.58588,-2.8111 0.49284,-3.70636 C 134.34939,144.29507 135,143.19031 135,142.5 c 0,-0.69031 0.675,-1.81531 1.5,-2.5 0.825,-0.68469 1.5,-2.27809 1.5,-3.54089 0,-1.53009 1.12829,-2.99331 3.38234,-4.38639 1.86029,-1.14973 3.93989,-3.43643 4.62132,-5.08156 0.68144,-1.64514 1.52428,-2.99116 1.87297,-2.99116 0.70867,0 2.99366,6.09586 3.79161,10.11518 0.41619,2.0964 -0.10274,3.05803 -2.61597,4.8476 -2.31982,1.65186 -2.86382,2.55936 -2.0918,3.48958 1.30661,1.57438 -2.72864,11.30158 -4.96047,11.95749 -5.50569,1.61807 -7.76997,1.63199 -8.37645,0.0515 z M 64.413412,103.29719 C 60.941139,97.869151 60.795646,97.298837 61.393787,91.460638 L 62.022207,85.3269 58.511104,83.436046 55,81.545192 55.062035,60.022596 55.12407,38.5 l 1.938925,4 c 1.066408,2.2 5.914401,12.55 10.773316,23 l 8.834392,19 12.903406,0.28166 C 103.79259,85.092025 110.73257,84.038677 115.13827,80.901543 119.12713,78.061224 122,72.027472 122,66.490178 122,57.82881 117.77023,53.254179 104.96508,48.066352 100.85929,46.402947 96.7125,44.082681 95.75,42.910206 91.756543,38.04555 95.096491,32 101.77749,32 c 4.55516,0 7.52603,1.904325 9.17267,5.879683 l 1.2258,2.959337 4.41202,-1.63521 c 2.42661,-0.899365 4.40462,-1.875645 4.39557,-2.16951 -0.009,-0.293865 -1.0284,-2.320993 -2.26523,-4.504729 -4.09944,-7.237944 -11.29348,-10.420205 -20.451868,-9.046819 -6.021369,0.90296 -12.727325,7.126535 -13.791582,12.799508 -1.783678,9.507823 2.658808,15.869877 14.716536,21.075447 11.448654,4.942622 12.263144,5.639084 12.263144,10.486188 0,6.67751 -1.66988,7.598974 -14.487752,7.994581 L 86,76.176952 86,63.202783 C 86,53.638911 85.60734,49.475723 84.506161,47.364307 82.624334,43.756067 82.620938,35.287075 84.5,32 c 0.786021,-1.375 1.445075,-3.538374 1.464565,-4.807498 0.03226,-2.100746 -0.345365,-2.279946 -4.214565,-2 L 77.5,25.5 77,45.5 C 76.676221,58.451145 76.196082,64.657112 75.637683,63.108439 74.82776,60.862189 73.204915,57.310853 62.450324,34.25 L 58.136521,25 52.56826,25 47,25 47,52.381285 47,79.76257 42.55718,80.881285 C 36.931501,82.297847 30,82.327708 30,80.935381 c 0,-0.58554 0.955415,-3.28554 2.123144,-6 L 34.246288,70 39.623144,70 45,70 45,66 C 45,62.095238 44.91667,62 41.5,62 39.575,62 38,61.585631 38,61.079179 38,60.572728 39.575,56.423889 41.5,51.859538 44.572459,44.574456 45,42.524802 45,35.080359 45,25.604626 44.426724,25.527611 40.679971,34.5 39.301934,37.8 36.615476,43.875 34.710064,48 32.804653,52.125 29.338074,60 27.006555,65.5 24.675036,71 22.110423,76.78155 21.307414,78.34789 l -1.460016,2.84789 -5.418645,-5.462031 C 9.6480782,70.914796 6.5478587,65.680367 2.9633493,56.375494 2.3626769,54.816235 2.8114373,53.270132 4.6500377,50.564388 6.6792371,47.578153 7.0327981,46.153605 6.5111203,43.065821 6.0954999,40.605784 6.3869448,38.056213 7.3328925,35.876927 9.1270126,31.743611 17.331193,22.951125 21.75,20.425998 23.70906,19.306493 25,17.776781 25,16.574878 c 0,-1.096648 2.065056,-3.889833 4.589013,-6.207077 3.895762,-3.576697 5.069983,-4.1351196 7.772824,-3.6965089 1.751096,0.2841638 5.64854,-0.1610882 8.660987,-0.9894489 3.012447,-0.8283608 9.003819,-1.7682199 13.314161,-2.0885759 L 67.173971,3.0108018 66.529153,6.8274476 C 65.895697,10.576839 65.960244,10.675456 70.192167,12.423912 72.561475,13.402812 75.175,14.603178 76,15.091393 80.37692,17.681544 85.030145,20 85.851754,20 c 0.512286,0 1.213787,-1.125 1.55889,-2.5 0.489825,-1.951618 1.26706,-2.5 3.543308,-2.5 1.603717,0 4.182644,0.522412 5.730948,1.160915 1.548305,0.638503 6.82727,1.201003 11.73103,1.25 8.8542,0.08847 8.92242,0.108555 9.85416,2.901585 1.1108,3.329751 0.37628,4.468828 -1.74592,2.707556 -2.42785,-2.01493 -1.78498,0.164485 1.80905,6.132964 1.83327,3.04445 3.61915,6.280477 3.96862,7.191172 C 122.6513,37.254886 123.39604,38 123.9568,38 c 0.56076,0 1.30409,1.779311 1.65184,3.954024 0.34775,2.174713 1.51522,4.753077 2.59437,5.729698 1.07915,0.97662 2.57699,3.24731 3.32852,5.045976 0.75153,1.798666 1.8832,3.270302 2.51483,3.270302 0.63163,0 3.76231,2.738466 6.95705,6.08548 5.45276,5.71265 5.95224,6.005483 8.15261,4.779724 4.10053,-2.284273 9.28961,-3.819569 10.11612,-2.993059 1.25177,1.251766 -4.03812,16.679167 -6.97361,20.337794 C 150.84665,86.019473 146.15903,91.1 141.88159,95.5 c -4.27744,4.4 -8.23952,9.2375 -8.80462,10.75 -0.89124,2.38538 -1.57073,2.75 -5.1248,2.75 l -4.09733,0 2.07258,-2.63486 C 127.06734,104.91597 128,102.64551 128,101.31969 128,98.139848 123.75817,94 120.5,94 c -3.41014,0 -7.5,4.166253 -7.5,7.64009 0,1.50206 1.0125,3.81181 2.25,5.1328 l 2.25,2.40179 -3,-0.33734 c -2.5917,-0.29143 -3,-0.74564 -3,-3.33734 0,-2.66544 -0.39033,-3.05648 -3.5,-3.50646 -2.37942,-0.34431 -3.08004,-0.77562 -2.18832,-1.34714 4.28101,-2.743759 3.03185,-10.640143 -2.01382,-12.730128 -3.79154,-1.570507 -7.582021,0.167273 -9.622242,4.4114 -1.166134,2.425826 -1.080548,3.168285 0.716275,6.213673 L 96.932549,102 93.466275,102 C 90.171485,102 90,102.17315 90,105.5 c 0,3.1275 -0.284622,3.5 -2.674314,3.5 l -2.674314,0 2.174314,-2.31445 c 2.884273,-3.07017 2.77173,-7.179043 -0.280231,-10.231005 -3.128274,-3.128273 -6.962636,-3.128273 -10.09091,0 -2.999691,2.999692 -3.131334,6.415335 -0.381965,9.910595 L 78.14516,109 l -5.041851,0 c -5.039941,0 -5.043234,-0.002 -8.689897,-5.70281 z"
       id="path3138"
       inkscape:connector-curvature="0" />
    <path
       style="fill:#7abd13"
       d="m 81.522117,170.3415 c -1.946145,-4.21218 -3.355953,-7.841 -3.132907,-8.06404 0.411883,-0.41189 4.888896,8.87269 6.064561,12.57688 0.425921,1.34196 1.724201,2.16114 3.844654,2.42588 l 3.201575,0.39971 -3.219718,0.16003 c -3.079791,0.15308 -3.373499,-0.1728 -6.758165,-7.49846 z m 12.741633,5.94092 c 1.520062,-0.22986 3.770062,-0.22371 5,0.0136 1.22994,0.23736 -0.01375,0.42542 -2.76375,0.41792 -2.75,-0.008 -3.756313,-0.20172 -2.23625,-0.43157 z m 12.14491,-5.32699 c 7.37835,-8.20022 8.24379,-8.93412 4.31136,-3.65608 -1.96668,2.63964 -4.84574,5.76959 -6.3979,6.95543 -1.65721,1.2661 -0.79593,-0.0958 2.08654,-3.29935 z M 76.458881,159.93347 c -0.362533,-0.58659 -0.444683,-1.281 -0.182555,-1.54313 0.262128,-0.26213 0.743066,0.21781 1.068751,1.06653 0.676184,1.76211 0.09985,2.07206 -0.886196,0.4766 z m 40.931379,-4.14517 c 2.33922,-1.96162 2.80268,-3.02034 2.43094,-5.55319 -0.25262,-1.72122 -0.0907,-2.90169 0.35974,-2.62328 0.45048,0.27841 0.81906,1.95762 0.81906,3.73158 0,2.59855 -0.63161,3.57939 -3.25,5.04699 l -3.25,1.82161 2.89026,-2.42371 z M 75.030408,154.57998 C 73.356938,150.17842 72.6259,144 73.778572,144 c 0.568804,0 0.822436,0.80974 0.563628,1.79943 -0.258809,0.98968 0.213391,3.78461 1.049333,6.21095 1.642658,4.76785 1.327434,7.01085 -0.361125,2.5696 z m 58.593142,-0.11862 c -0.34652,-0.90301 -0.40036,-2.01347 -0.11964,-2.46769 0.28072,-0.45421 0.0816,-1.95374 -0.44255,-3.33229 -0.71101,-1.87009 -0.58588,-2.8111 0.49284,-3.70636 C 134.34939,144.29507 135,143.19031 135,142.5 c 0,-0.69031 0.675,-1.81531 1.5,-2.5 0.825,-0.68469 1.5,-2.27809 1.5,-3.54089 0,-1.53009 1.12829,-2.99331 3.38234,-4.38639 1.86029,-1.14973 3.93989,-3.43643 4.62132,-5.08156 0.68144,-1.64514 1.52428,-2.99116 1.87297,-2.99116 0.70867,0 2.99366,6.09586 3.79161,10.11518 0.41619,2.0964 -0.10274,3.05803 -2.61597,4.8476 -2.31982,1.65186 -2.86382,2.55936 -2.0918,3.48958 1.30661,1.57438 -2.72864,11.30158 -4.96047,11.95749 -5.50569,1.61807 -7.76997,1.63199 -8.37645,0.0515 z M 120.54236,145 c 0.41902,-0.825 1.38732,-2.23133 2.15178,-3.12519 1.2226,-1.42953 0.99361,-1.87895 -1.90211,-3.73315 -1.81062,-1.15938 -2.91146,-2.11555 -2.44632,-2.12481 1.13684,-0.0226 6.66368,3.27488 6.61833,3.94876 -0.0198,0.29391 -1.19417,1.88439 -2.60975,3.53439 -1.41558,1.65 -2.23095,2.325 -1.81193,1.5 z m -45.889543,-4.5 c 0.17593,-1.1 0.326018,-2.7875 0.333528,-3.75 0.01078,-1.3819 0.802449,-1.71634 3.763655,-1.58996 3.450651,0.14726 3.503646,0.19125 0.663873,0.55113 -2.449833,0.31047 -3.291769,1.05064 -4.083528,3.58997 C 74.781774,141.06051 74.476886,141.6 74.652817,140.5 z M 87.25,135.31067 c 0.9625,-0.25152 2.5375,-0.25152 3.5,0 0.9625,0.25153 0.175,0.45733 -1.75,0.45733 -1.925,0 -2.7125,-0.2058 -1.75,-0.45733 z m 23,0 c 0.9625,-0.25152 2.5375,-0.25152 3.5,0 0.9625,0.25153 0.175,0.45733 -1.75,0.45733 -1.925,0 -2.7125,-0.2058 -1.75,-0.45733 z M 92.180248,129.25 c -0.17627,-5.13414 -0.119562,-5.24699 2.569752,-5.11382 2.278271,0.11282 2.372999,0.20935 0.55223,0.56271 -1.820443,0.35329 -2.261634,1.23127 -2.569752,5.11382 L 92.360496,134.5 92.180248,129.25 z m -13.362202,1.25 c -1.816657,-3.98713 0.272573,-7.5 4.460515,-7.5 1.826792,0 3.861439,0.54 4.521439,1.2 1.774021,1.77402 1.456261,6.35414 -0.55,7.92756 -1.572386,1.23315 -1.615799,1.20096 -0.427742,-0.31709 0.727241,-0.92924 1.177241,-2.95424 1,-4.5 -0.256992,-2.24128 -0.891452,-2.87574 -3.13273,-3.13273 -5.086913,-0.58328 -7.346617,3.33372 -4.03454,6.99352 1.02336,1.1308 1.206003,1.82874 0.478561,1.82874 -0.647035,0 -1.689011,-1.125 -2.315503,-2.5 z M 113.2,131.8 c -2.06526,-2.06526 -1.42842,-6.60423 1.16502,-8.30352 3.82259,-2.50465 8.81699,0.31273 8.57159,4.83531 -0.0349,0.64251 -0.45948,0.18513 -0.94359,-1.01642 -2.05548,-5.1016 -8.99302,-4.7526 -8.99302,0.45241 0,1.55772 0.54,3.37222 1.2,4.03222 0.66,0.66 0.975,1.2 0.7,1.2 -0.275,0 -1.04,-0.54 -1.7,-1.2 z m 5.8,0.82244 c 0,-0.20765 0.6853,-0.9463 1.52289,-1.64144 1.27335,-1.05678 1.41968,-0.99492 0.89301,0.37756 -0.53789,1.40173 -2.4159,2.38422 -2.4159,1.26388 z m -10.92105,-4.20577 c 0.048,-1.16495 0.28494,-1.4019 0.60416,-0.60417 0.28887,0.72187 0.25335,1.58437 -0.0789,1.91667 -0.3323,0.33229 -0.56864,-0.25834 -0.52522,-1.3125 z M 105.5,125 l -3,-0.76337 3.25,-0.11832 C 107.5375,124.05324 109,124.45 109,125 c 0,0.55 -0.1125,0.94676 -0.25,0.88169 -0.1375,-0.0651 -1.6,-0.46184 -3.25,-0.88169 z m -9.3,-4.2 c -1.474251,-1.47425 -1.541908,-4.29262 -0.164816,-6.86574 1.274496,-2.38142 6.163456,-2.59276 8.393386,-0.36283 2.63058,2.63058 1.46115,8.42857 -1.7,8.42857 -0.47928,0 -0.16428,-0.70714 0.7,-1.57143 C 106.44899,117.40816 104.71115,113 100.5,113 c -3.991727,0 -6.104997,4.995 -3.3,7.8 0.66,0.66 0.975,1.2 0.7,1.2 -0.275,0 -1.04,-0.54 -1.7,-1.2 z M 64.413412,103.29719 C 60.941139,97.869151 60.795646,97.298837 61.393787,91.460638 L 62.022207,85.3269 58.511104,83.436046 55,81.545192 55.062035,60.022596 55.12407,38.5 l 1.938925,4 c 1.066408,2.2 5.914401,12.55 10.773316,23 l 8.834392,19 12.903406,0.28166 C 103.79259,85.092025 110.73257,84.038677 115.13827,80.901543 119.12713,78.061224 122,72.027472 122,66.490178 122,57.82881 117.77023,53.254179 104.96508,48.066352 100.85929,46.402947 96.7125,44.082681 95.75,42.910206 91.756543,38.04555 95.096491,32 101.77749,32 c 4.55516,0 7.52603,1.904325 9.17267,5.879683 l 1.2258,2.959337 4.41202,-1.63521 c 2.42661,-0.899365 4.40462,-1.875645 4.39557,-2.16951 -0.009,-0.293865 -1.0284,-2.320993 -2.26523,-4.504729 -4.09944,-7.237944 -11.29348,-10.420205 -20.451868,-9.046819 -6.021369,0.90296 -12.727325,7.126535 -13.791582,12.799508 -1.783678,9.507823 2.658808,15.869877 14.716536,21.075447 11.448654,4.942622 12.263144,5.639084 12.263144,10.486188 0,6.67751 -1.66988,7.598974 -14.487752,7.994581 L 86,76.176952 86,63.202783 C 86,53.638911 85.60734,49.475723 84.506161,47.364307 82.624334,43.756067 82.620938,35.287075 84.5,32 c 0.786021,-1.375 1.445075,-3.538374 1.464565,-4.807498 0.03226,-2.100746 -0.345365,-2.279946 -4.214565,-2 L 77.5,25.5 77,45.5 C 76.676221,58.451145 76.196082,64.657112 75.637683,63.108439 74.82776,60.862189 73.204915,57.310853 62.450324,34.25 L 58.136521,25 52.56826,25 47,25 47,52.381285 47,79.76257 42.55718,80.881285 C 36.931501,82.297847 30,82.327708 30,80.935381 c 0,-0.58554 0.955415,-3.28554 2.123144,-6 L 34.246288,70 39.623144,70 45,70 45,66 C 45,62.095238 44.91667,62 41.5,62 39.575,62 38,61.585631 38,61.079179 38,60.572728 39.575,56.423889 41.5,51.859538 44.572459,44.574456 45,42.524802 45,35.080359 45,25.604626 44.426724,25.527611 40.679971,34.5 39.301934,37.8 36.615476,43.875 34.710064,48 32.804653,52.125 29.338074,60 27.006555,65.5 24.675036,71 22.110423,76.78155 21.307414,78.34789 l -1.460016,2.84789 -5.418645,-5.462031 C 9.6480782,70.914796 6.5478587,65.680367 2.9633493,56.375494 2.3626769,54.816235 2.8114373,53.270132 4.6500377,50.564388 6.6792371,47.578153 7.0327981,46.153605 6.5111203,43.065821 6.0954999,40.605784 6.3869448,38.056213 7.3328925,35.876927 9.1270126,31.743611 17.331193,22.951125 21.75,20.425998 23.70906,19.306493 25,17.776781 25,16.574878 c 0,-1.096648 2.065056,-3.889833 4.589013,-6.207077 3.895762,-3.576697 5.069983,-4.1351196 7.772824,-3.6965089 1.751096,0.2841638 5.64854,-0.1610882 8.660987,-0.9894489 3.012447,-0.8283608 9.003819,-1.7682199 13.314161,-2.0885759 L 67.173971,3.0108018 66.529153,6.8274476 C 65.895697,10.576839 65.960244,10.675456 70.192167,12.423912 72.561475,13.402812 75.175,14.603178 76,15.091393 80.37692,17.681544 85.030145,20 85.851754,20 c 0.512286,0 1.213787,-1.125 1.55889,-2.5 0.489825,-1.951618 1.26706,-2.5 3.543308,-2.5 1.603717,0 4.182644,0.522412 5.730948,1.160915 1.548305,0.638503 6.82727,1.201003 11.73103,1.25 8.8542,0.08847 8.92242,0.108555 9.85416,2.901585 1.1108,3.329751 0.37628,4.468828 -1.74592,2.707556 -2.42785,-2.01493 -1.78498,0.164485 1.80905,6.132964 1.83327,3.04445 3.61915,6.280477 3.96862,7.191172 C 122.6513,37.254886 123.39604,38 123.9568,38 c 0.56076,0 1.30409,1.779311 1.65184,3.954024 0.34775,2.174713 1.51522,4.753077 2.59437,5.729698 1.07915,0.97662 2.57699,3.24731 3.32852,5.045976 0.75153,1.798666 1.8832,3.270302 2.51483,3.270302 0.63163,0 3.76231,2.738466 6.95705,6.08548 5.45276,5.71265 5.95224,6.005483 8.15261,4.779724 4.10053,-2.284273 9.28961,-3.819569 10.11612,-2.993059 1.25177,1.251766 -4.03812,16.679167 -6.97361,20.337794 C 150.84665,86.019473 146.15903,91.1 141.88159,95.5 c -4.27744,4.4 -8.23952,9.2375 -8.80462,10.75 -0.89124,2.38538 -1.57073,2.75 -5.1248,2.75 l -4.09733,0 2.07258,-2.63486 C 127.06734,104.91597 128,102.64551 128,101.31969 128,98.139848 123.75817,94 120.5,94 c -3.41014,0 -7.5,4.166253 -7.5,7.64009 0,1.50206 1.0125,3.81181 2.25,5.1328 l 2.25,2.40179 -3,-0.33734 c -2.5917,-0.29143 -3,-0.74564 -3,-3.33734 0,-2.66544 -0.39033,-3.05648 -3.5,-3.50646 -2.37942,-0.34431 -3.08004,-0.77562 -2.18832,-1.34714 4.28101,-2.743759 3.03185,-10.640143 -2.01382,-12.730128 -3.79154,-1.570507 -7.582021,0.167273 -9.622242,4.4114 -1.166134,2.425826 -1.080548,3.168285 0.716275,6.213673 L 96.932549,102 93.466275,102 C 90.171485,102 90,102.17315 90,105.5 c 0,3.1275 -0.284622,3.5 -2.674314,3.5 l -2.674314,0 2.174314,-2.31445 c 2.884273,-3.07017 2.77173,-7.179043 -0.280231,-10.231005 -3.128274,-3.128273 -6.962636,-3.128273 -10.09091,0 -2.999691,2.999692 -3.131334,6.415335 -0.381965,9.910595 L 78.14516,109 l -5.041851,0 c -5.039941,0 -5.043234,-0.002 -8.689897,-5.70281 z"
       id="path3136"
       inkscape:connector-curvature="0" />
    <path
       style="fill:#1d9950"
       d="m 133.62355,154.46136 c -0.34652,-0.90301 -0.40036,-2.01347 -0.11964,-2.46769 0.28072,-0.45421 0.0816,-1.95374 -0.44255,-3.33229 -0.71101,-1.87009 -0.58588,-2.8111 0.49284,-3.70636 C 134.34939,144.29507 135,143.19031 135,142.5 c 0,-0.69031 0.675,-1.81531 1.5,-2.5 0.825,-0.68469 1.5,-2.27809 1.5,-3.54089 0,-1.53009 1.12829,-2.99331 3.38234,-4.38639 1.86029,-1.14973 3.93989,-3.43643 4.62132,-5.08156 0.68144,-1.64514 1.52428,-2.99116 1.87297,-2.99116 0.70867,0 2.99366,6.09586 3.79161,10.11518 0.41619,2.0964 -0.10274,3.05803 -2.61597,4.8476 -2.31982,1.65186 -2.86382,2.55936 -2.0918,3.48958 1.30661,1.57438 -2.72864,11.30158 -4.96047,11.95749 -5.50569,1.61807 -7.76997,1.63199 -8.37645,0.0515 z M 64.413412,103.29719 C 60.941139,97.869151 60.795646,97.298837 61.393787,91.460638 L 62.022207,85.3269 58.511104,83.436046 55,81.545192 55.062035,60.022596 55.12407,38.5 l 1.938925,4 c 1.066408,2.2 5.914401,12.55 10.773316,23 l 8.834392,19 12.903406,0.28166 C 103.79259,85.092025 110.73257,84.038677 115.13827,80.901543 119.12713,78.061224 122,72.027472 122,66.490178 122,57.82881 117.77023,53.254179 104.96508,48.066352 100.85929,46.402947 96.7125,44.082681 95.75,42.910206 91.756543,38.04555 95.096491,32 101.77749,32 c 4.55516,0 7.52603,1.904325 9.17267,5.879683 l 1.2258,2.959337 4.41202,-1.63521 c 2.42661,-0.899365 4.40462,-1.875645 4.39557,-2.16951 -0.009,-0.293865 -1.0284,-2.320993 -2.26523,-4.504729 -4.09944,-7.237944 -11.29348,-10.420205 -20.451868,-9.046819 -6.021369,0.90296 -12.727325,7.126535 -13.791582,12.799508 -1.783678,9.507823 2.658808,15.869877 14.716536,21.075447 11.448654,4.942622 12.263144,5.639084 12.263144,10.486188 0,6.67751 -1.66988,7.598974 -14.487752,7.994581 L 86,76.176952 86,63.202783 C 86,53.638911 85.60734,49.475723 84.506161,47.364307 82.624334,43.756067 82.620938,35.287075 84.5,32 c 0.786021,-1.375 1.445075,-3.538374 1.464565,-4.807498 0.03226,-2.100746 -0.345365,-2.279946 -4.214565,-2 L 77.5,25.5 77,45.5 C 76.676221,58.451145 76.196082,64.657112 75.637683,63.108439 74.82776,60.862189 73.204915,57.310853 62.450324,34.25 L 58.136521,25 52.56826,25 47,25 47,52.381285 47,79.76257 42.55718,80.881285 C 36.931501,82.297847 30,82.327708 30,80.935381 c 0,-0.58554 0.955415,-3.28554 2.123144,-6 L 34.246288,70 39.623144,70 45,70 45,66 C 45,62.095238 44.91667,62 41.5,62 39.575,62 38,61.585631 38,61.079179 38,60.572728 39.575,56.423889 41.5,51.859538 44.572459,44.574456 45,42.524802 45,35.080359 45,25.604626 44.426724,25.527611 40.679971,34.5 39.301934,37.8 36.615476,43.875 34.710064,48 32.804653,52.125 29.338074,60 27.006555,65.5 24.675036,71 22.110423,76.78155 21.307414,78.34789 l -1.460016,2.84789 -5.418645,-5.462031 C 9.6480782,70.914796 6.5478587,65.680367 2.9633493,56.375494 2.3626769,54.816235 2.8114373,53.270132 4.6500377,50.564388 6.6792371,47.578153 7.0327981,46.153605 6.5111203,43.065821 6.0954999,40.605784 6.3869448,38.056213 7.3328925,35.876927 9.1270126,31.743611 17.331193,22.951125 21.75,20.425998 23.70906,19.306493 25,17.776781 25,16.574878 c 0,-1.096648 2.065056,-3.889833 4.589013,-6.207077 3.895762,-3.576697 5.069983,-4.1351196 7.772824,-3.6965089 1.751096,0.2841638 5.64854,-0.1610882 8.660987,-0.9894489 3.012447,-0.8283608 9.003819,-1.7682199 13.314161,-2.0885759 L 67.173971,3.0108018 66.529153,6.8274476 C 65.895697,10.576839 65.960244,10.675456 70.192167,12.423912 72.561475,13.402812 75.175,14.603178 76,15.091393 80.37692,17.681544 85.030145,20 85.851754,20 c 0.512286,0 1.213787,-1.125 1.55889,-2.5 0.489825,-1.951618 1.26706,-2.5 3.543308,-2.5 1.603717,0 4.182644,0.522412 5.730948,1.160915 1.548305,0.638503 6.82727,1.201003 11.73103,1.25 8.8542,0.08847 8.92242,0.108555 9.85416,2.901585 1.1108,3.329751 0.37628,4.468828 -1.74592,2.707556 -2.42785,-2.01493 -1.78498,0.164485 1.80905,6.132964 1.83327,3.04445 3.61915,6.280477 3.96862,7.191172 C 122.6513,37.254886 123.39604,38 123.9568,38 c 0.56076,0 1.30409,1.779311 1.65184,3.954024 0.34775,2.174713 1.51522,4.753077 2.59437,5.729698 1.07915,0.97662 2.57699,3.24731 3.32852,5.045976 0.75153,1.798666 1.8832,3.270302 2.51483,3.270302 0.63163,0 3.76231,2.738466 6.95705,6.08548 5.45276,5.71265 5.95224,6.005483 8.15261,4.779724 4.10053,-2.284273 9.28961,-3.819569 10.11612,-2.993059 1.25177,1.251766 -4.03812,16.679167 -6.97361,20.337794 C 150.84665,86.019473 146.15903,91.1 141.88159,95.5 c -4.27744,4.4 -8.23952,9.2375 -8.80462,10.75 -0.89124,2.38538 -1.57073,2.75 -5.1248,2.75 l -4.09733,0 2.07258,-2.63486 C 127.06734,104.91597 128,102.64551 128,101.31969 128,98.139848 123.75817,94 120.5,94 c -3.41014,0 -7.5,4.166253 -7.5,7.64009 0,1.50206 1.0125,3.81181 2.25,5.1328 l 2.25,2.40179 -3,-0.33734 c -2.5917,-0.29143 -3,-0.74564 -3,-3.33734 0,-2.66544 -0.39033,-3.05648 -3.5,-3.50646 -2.37942,-0.34431 -3.08004,-0.77562 -2.18832,-1.34714 4.28101,-2.743759 3.03185,-10.640143 -2.01382,-12.730128 -3.79154,-1.570507 -7.582021,0.167273 -9.622242,4.4114 -1.166134,2.425826 -1.080548,3.168285 0.716275,6.213673 L 96.932549,102 93.466275,102 C 90.171485,102 90,102.17315 90,105.5 c 0,3.1275 -0.284622,3.5 -2.674314,3.5 l -2.674314,0 2.174314,-2.31445 c 2.884273,-3.07017 2.77173,-7.179043 -0.280231,-10.231005 -3.128274,-3.128273 -6.962636,-3.128273 -10.09091,0 -2.999691,2.999692 -3.131334,6.415335 -0.381965,9.910595 L 78.14516,109 l -5.041851,0 c -5.039941,0 -5.043234,-0.002 -8.689897,-5.70281 z"
       id="path3134"
       inkscape:connector-curvature="0" />
    <path
       style="fill:#008c34"
       d="m 133.63941,150.61683 c -0.35956,-3.0279 -0.20586,-5.25291 0.37648,-5.45016 0.54126,-0.18334 0.98411,-1.14769 0.98411,-2.14301 0,-0.99533 0.675,-2.0687 1.5,-2.38529 0.84191,-0.32307 1.5,-1.81096 1.5,-3.39138 0,-2.06969 0.79684,-3.28648 3.00734,-4.59225 1.65404,-0.97707 3.8546,-3.42796 4.89014,-5.44643 l 1.88279,-3.66995 1.44616,3.48082 c 2.97782,7.16748 2.94966,8.43793 -0.25507,11.50825 -1.8129,1.73688 -2.77886,3.50372 -2.46176,4.50283 0.5434,1.7121 -3.07598,10.95185 -4.30639,10.9936 -0.38677,0.0131 -2.33513,0.40319 -4.32969,0.86683 l -3.62648,0.84297 -0.60763,-5.11683 z M 64.686992,103.30539 c -2.427619,-3.996885 -2.780554,-5.526601 -2.576123,-11.165607 0.236377,-6.520192 0.228956,-6.539471 -3.459573,-8.987279 l -3.696459,-2.45307 0.08831,-20.349717 C 55.091719,49.157373 55.263363,40 55.42458,40 c 0.161217,0 4.950018,10.125 10.641781,22.5 L 76.41502,85 91.95751,84.978038 c 12.91231,-0.01824 16.22639,-0.332615 19.58386,-1.857702 7.65136,-3.475531 12.29488,-11.968035 10.87276,-19.885152 -0.97597,-5.43339 -8.21624,-12.011684 -17.04437,-15.486002 -9.249855,-3.640289 -10.703093,-4.807259 -10.703093,-8.594731 0,-7.072457 8.843023,-9.944579 13.881083,-4.508428 1.34874,1.455312 2.45225,3.228755 2.45225,3.940983 0,2.256153 1.7464,2.498271 5.93408,0.822692 C 119.17034,38.514926 121,37.635996 121,37.45652 c 0,-0.179476 -0.45262,-1.593116 -1.00583,-3.14142 -0.93819,-2.625785 -0.90456,-2.684559 0.5,-0.87397 0.82821,1.067621 1.50583,2.481976 1.50583,3.143011 0,0.661035 0.61818,1.439099 1.37373,1.729032 0.75555,0.289932 1.69077,2.250577 2.07827,4.356988 0.38749,2.106412 1.74376,4.954839 3.01392,6.329839 1.27017,1.375 2.58446,3.4 2.92066,4.5 0.3362,1.1 2.4158,3.028267 4.62134,4.285039 2.20554,1.256771 5.19083,4.069271 6.63397,6.25 2.55457,3.860219 4.97765,4.924764 6.90811,3.034976 0.5225,-0.511492 2.8625,-1.583857 5.2,-2.383034 4.20231,-1.436744 4.25,-1.42682 4.25,0.884496 0,7.860414 -8.81686,22.866056 -17.81782,30.324622 -2.39204,1.982146 -5.47936,5.516401 -6.8607,7.853901 -2.04873,3.46686 -3.0533,4.25 -5.45169,4.25 -2.59697,0 -2.81933,-0.22577 -1.90497,-1.93426 1.90193,-3.5538 1.22708,-7.769635 -1.59968,-9.99316 -3.34296,-2.629571 -6.38732,-2.629571 -9.73028,0 -2.82676,2.223525 -3.50161,6.43936 -1.59968,9.99316 0.80551,1.50511 0.70864,1.93426 -0.43664,1.93426 -0.92957,0 -1.58727,-1.19736 -1.78518,-3.25 -0.26141,-2.71115 -0.77089,-3.30261 -3.0729,-3.56734 -2.61371,-0.30058 -2.67977,-0.43123 -1.25,-2.472509 4.81902,-6.880106 -4.19675,-15.106311 -11.188771,-10.208909 -2.961374,2.074227 -3.893897,6.94599 -1.909322,9.974834 1.51642,2.314344 1.477398,2.405364 -1.161618,2.709364 -2.270148,0.2615 -2.783604,0.86274 -3.044107,3.56456 -0.197911,2.05264 -0.855609,3.25 -1.785184,3.25 -1.145273,0 -1.24215,-0.42915 -0.436642,-1.93426 1.755317,-3.27984 1.201668,-7.560709 -1.279267,-9.891426 -6.312236,-5.930038 -15.804589,2.129189 -11.650365,9.891426 0.949529,1.77421 0.680614,1.93164 -3.25,1.90265 -4.012993,-0.0296 -4.463864,-0.32579 -7.098192,-4.663 z M 30,81.682822 c 0,-0.27767 0.962452,-3.019897 2.138783,-6.093838 L 34.277565,70 39.638783,70 45,70 45,65.5 C 45,61.043439 44.966971,61 41.578358,61 l -3.421641,0 3.421641,-8.485528 C 44.612397,44.990182 45,42.985131 45,34.814472 45,29.613096 44.626114,26.013745 44.141521,26.55 43.669358,27.0725 41.449345,31.775 39.20816,37 36.966975,42.225 31.921429,53.7 27.995837,62.5 24.070244,71.3 20.610784,79.078991 20.308146,79.786647 19.34934,82.028621 8.7590296,69.253683 5.75,62.225367 4.2375,58.692557 3.0405847,55.059109 3.0901883,54.151038 c 0.049603,-0.908071 0.5383413,-0.0887 1.0860839,1.820831 0.8024501,2.797483 1.171474,3.158127 1.8998076,1.856667 C 6.5732314,56.940176 7.1418893,55.377835 7.339764,54.356668 7.7662803,52.155556 8.8440781,49.084128 9.9212996,47 c 0.4264174,-0.825 0.6583854,-2.2875 0.5154864,-3.25 -0.1429,-0.9625 0.05222,-1.75 0.43359,-1.75 1.65824,0 0.968571,-4.999398 -0.867033,-6.285105 -1.894796,-1.327167 -1.8000677,-1.572576 2.594127,-6.720507 2.508405,-2.938672 6.55014,-6.604683 8.981633,-8.14669 C 24.805995,18.801264 26,17.393957 26,15.637034 c 0,-1.425832 0.961891,-3.037269 2.359689,-3.953142 1.297829,-0.85037 3.151787,-2.3382249 4.119905,-3.3063435 C 33.659582,7.1975609 35.930867,6.5778492 39.369905,6.497553 42.191457,6.4316742 46.975,5.8677719 50,5.2444369 53.025,4.6211019 57.968513,3.9736029 60.985584,3.8055502 L 66.471167,3.5 66.160651,7.2304456 c -0.289552,3.4785824 -0.05227,3.8412314 3.514416,5.3713354 2.103713,0.90249 4.499933,2.038623 5.324933,2.52474 9.087712,5.354778 13,5.928037 13,1.904864 0,-2.536351 2.579361,-2.643094 10.068499,-0.416669 3.725051,1.107409 7.242381,1.425947 11.195381,1.013881 4.90827,-0.511644 6.05871,-0.306006 7.75,1.385284 1.09237,1.092366 1.98612,2.730863 1.98612,3.641107 0,1.486635 -0.20407,1.470304 -2.00613,-0.160536 -3.24228,-2.934221 -3.45046,-0.951283 -0.44204,4.210376 L 119.34665,31.5 115.23299,27.806506 C 110.68329,23.721511 106.42429,22.512598 99.07158,23.2191 86.426748,24.434108 79.948557,38.219976 86.883664,49.155505 89.428668,53.16856 90.806555,54.1376 98.616285,57.406817 109.51182,61.967779 111,63.240784 111,68 c 0,6.157114 -2.39002,7.440485 -14.602301,7.841025 L 86,76.18205 85.964565,62.841025 C 85.93886,53.163466 85.536688,48.813496 84.5,47 c -0.786021,-1.375 -1.429129,-4.525 -1.429129,-7 0,-2.475 0.643108,-5.625 1.429129,-7 0.786021,-1.375 1.445075,-3.7375 1.464565,-5.25 C 85.998039,25.152158 85.751015,25 81.5,25 L 77,25 76.951284,44.75 76.902567,64.5 72.400102,55 C 69.923746,49.775 65.83789,40.8875 63.320422,35.25 L 58.743207,25 52.371604,25 46,25 l 0,27.420545 0,27.420544 -2.75,0.526534 C 37.863517,81.398956 30,82.179491 30,81.682822 z M 5.3060669,50.214294 c 1.0903415,-1.204814 1.7561857,-3.803509 1.8686403,-7.293035 0.1698311,-5.26995 0.1856226,-5.297901 0.5657941,-1.001472 0.4993635,5.643453 -0.2771016,8.688412 -2.4258026,9.512946 -1.6005172,0.614176 -1.6010345,0.541146 -0.00863,-1.218439 z"
       id="path3132"
       inkscape:connector-curvature="0" />
  </g>
</svg>
